<svg width="19" height="22" viewBox="0 0 19 22" fill="none" xmlns="http://www.w3.org/2000/svg">
<path d="M17 11V4.749C17.0001 4.67006 16.9845 4.59189 16.9543 4.51896C16.9241 4.44603 16.8798 4.37978 16.824 4.324L13.676 1.176C13.5636 1.06345 13.4111 1.00014 13.252 1H1.6C1.44087 1 1.28826 1.06321 1.17574 1.17574C1.06321 1.28826 1 1.44087 1 1.6V20.4C1 20.5591 1.06321 20.7117 1.17574 20.8243C1.28826 20.9368 1.44087 21 1.6 21H8M5 9H13M5 5H9M5 13H8M14.954 15.94L15.954 14.94C16.058 14.8357 16.1816 14.7529 16.3177 14.6965C16.4538 14.64 16.5997 14.6109 16.747 14.6109C16.8943 14.6109 17.0402 14.64 17.1763 14.6965C17.3124 14.7529 17.436 14.8357 17.54 14.94C17.6442 15.044 17.7268 15.1676 17.7832 15.3035C17.8396 15.4395 17.8686 15.5853 17.8686 15.7325C17.8686 15.8797 17.8396 16.0255 17.7832 16.1615C17.7268 16.2974 17.6442 16.421 17.54 16.525L16.54 17.525L14.954 15.939L11.963 18.93C11.8135 19.08 11.7154 19.2737 11.683 19.483L11.439 21.04L12.996 20.797C13.2053 20.7646 13.399 20.6665 13.549 20.517L16.539 17.525" stroke="#352AA4" stroke-width="1.5" stroke-linecap="round" stroke-linejoin="round"/>
</svg>
