<svg width="24" height="24" viewBox="0 0 24 24" fill="none" xmlns="http://www.w3.org/2000/svg">
<path d="M7 5.422V5C7 3.586 7 2.879 7.44 2.44C7.878 2 8.585 2 10 2C11.415 2 12.121 2 12.56 2.44C13 2.878 13 3.585 13 5V7H7V5.5" stroke="#4896FF" stroke-width="1.5" stroke-linecap="round" stroke-linejoin="round"/>
<path d="M7 5.00009C7.552 5.00009 8 5.05209 8 4.50009C8 3.94809 7.552 4.00009 7 4.00009M10 7.00009C5.582 7.00009 2 10.3561 2 14.4951C2 16.4101 2.766 18.1571 4.028 19.4821C4.478 19.9551 4.703 20.1911 5.646 20.5961C6.59 21.0001 7.24 21.0001 8.542 21.0001H11.458C12.76 21.0001 13.41 21.0001 14.354 20.5961C15.297 20.1911 15.522 19.9551 15.973 19.4821C17.233 18.1571 18 16.4101 18 14.4951C18 10.3551 14.418 7.00009 10 7.00009Z" stroke="#4896FF" stroke-width="1.5"/>
<path d="M2.5 13C3.935 13.58 5.643 14.73 7.86 14.98C10.856 15.318 12.424 12.824 15.398 13.318C16.446 13.492 17.423 13.792 18 14.112" stroke="#4896FF" stroke-width="1.5" stroke-linecap="round"/>
<path d="M13.5 5H14.32C15.0962 5.00005 15.8618 5.18082 16.556 5.528L17.5 6" stroke="#4896FF" stroke-width="1.5"/>
<path d="M20.4984 5.24994C21.6944 5.93994 22.2154 7.27494 21.6634 8.23194C21.1114 9.18794 19.6934 9.40394 18.4984 8.71394C17.3034 8.02394 16.7814 6.68794 17.3334 5.73194C17.8854 4.77594 19.3034 4.55894 20.4984 5.24994Z" stroke="#4896FF" stroke-width="1.5"/>
</svg>
