<svg width="24" height="24" viewBox="0 0 24 24" fill="none" xmlns="http://www.w3.org/2000/svg">
<path d="M9.00023 18.5C9.00023 17.21 8.19023 16.089 7.20023 15.263C6.01573 14.2765 5.16398 12.9489 4.76092 11.461C4.35785 9.97315 4.42306 8.3972 4.94765 6.94769C5.47224 5.49818 6.43073 4.24552 7.69268 3.36021C8.95462 2.47491 10.4587 1.99995 12.0002 2C13.5415 2.0002 15.0453 2.47525 16.307 3.36051C17.5687 4.24577 18.527 5.49824 19.0515 6.94752C19.5761 8.39679 19.6414 9.97249 19.2386 11.4602C18.8357 12.9479 17.9843 14.2754 16.8002 15.262C15.8102 16.089 15.0002 17.21 15.0002 18.5M9.00023 18.5H15.0002M9.00023 18.5V20.5C9.00023 20.8978 9.15826 21.2794 9.43957 21.5607C9.72087 21.842 10.1024 22 10.5002 22H13.5002C13.8981 22 14.2796 21.842 14.5609 21.5607C14.8422 21.2794 15.0002 20.8978 15.0002 20.5V18.5" stroke="#4896FF" stroke-width="1.5" stroke-linecap="round" stroke-linejoin="round"/>
<path d="M10 8C10 6.987 10.895 6 12 6C13.105 6 14 6.82 14 7.833C14 8.198 13.884 8.538 13.683 8.824C13.085 9.676 12 10.488 12 11.5M11.992 14H12.001" stroke="#4896FF" stroke-width="1.5" stroke-linecap="round" stroke-linejoin="round"/>
</svg>
