<svg width="32" height="32" viewBox="0 0 32 32" fill="none" xmlns="http://www.w3.org/2000/svg">
<path d="M3.19922 16.2002C4.59922 12.2135 8.60589 9.3335 13.3326 9.3335C18.6086 9.3335 22.9899 12.9215 23.8472 17.6348C22.9739 17.2668 21.8406 16.9615 20.6939 16.7708C18.3806 16.3868 16.6139 17.1868 15.1006 17.8775L15.0859 17.8842C13.5472 18.5868 12.2712 19.1695 10.5926 18.9802C9.25522 18.8295 8.05122 18.4068 6.92055 17.9055C6.40855 17.6788 5.92189 17.4415 5.44055 17.2055L5.27922 17.1268C4.76356 16.869 4.23926 16.6289 3.70722 16.4068L3.19922 16.2002Z" fill="#D4F4F4"/>
<path d="M2.73864 18.1705C2.69118 18.554 2.66758 18.9401 2.66797 19.3265C2.66797 21.8798 3.68931 24.2092 5.37197 25.9758C5.97197 26.6065 6.27197 26.9212 7.52931 27.4612C8.78797 27.9998 9.65464 27.9998 11.3906 27.9998H15.2786C17.0146 27.9998 17.8813 27.9998 19.14 27.4612C20.3973 26.9212 20.6973 26.6065 21.2986 25.9758C22.8426 24.3532 23.8293 22.2558 23.9813 19.9492L23.516 19.6905C22.888 19.3412 21.7106 18.9665 20.368 18.7438C18.716 18.4692 17.456 19.0012 15.9333 19.6972L15.7866 19.7638C14.328 20.4305 12.6053 21.2198 10.3706 20.9678C8.75064 20.7852 7.33731 20.2758 6.11197 19.7332C5.56531 19.4905 5.04531 19.2372 4.56531 19.0025L4.40531 18.9238C3.931 18.6866 3.44896 18.4651 2.95997 18.2598L2.73864 18.1705ZM16.748 3.25317C17.22 3.72384 17.312 4.4265 17.3306 5.6665H19.0946C20.2846 5.66658 21.4583 5.94367 22.5226 6.47584L23.6373 7.03317C24.5453 6.30117 26.0373 6.2505 27.3346 6.99984C28.9293 7.91984 29.6253 9.69984 28.888 10.9758C28.152 12.2505 26.2613 12.5385 24.668 11.6185C23.5426 10.9678 22.864 9.88917 22.8226 8.8625L21.628 8.26517C20.8414 7.87173 19.9741 7.66677 19.0946 7.6665H17.3346V8.64517C16.0446 8.21682 14.694 7.99893 13.3346 7.99984C11.9346 7.99984 10.588 8.2265 9.33464 8.64517V7.6665H9.47731C9.60664 7.66784 9.75731 7.66917 9.88531 7.6665C10.0706 7.65984 10.3213 7.6425 10.5733 7.56517C10.8426 7.48117 11.156 7.3145 11.384 6.98517C11.6053 6.66784 11.668 6.31184 11.668 5.99984C11.668 5.68784 11.6053 5.33184 11.384 5.01317C11.1861 4.73447 10.9 4.5306 10.572 4.4345C10.348 4.37129 10.1167 4.33767 9.88397 4.3345C9.74888 4.33149 9.61375 4.33105 9.47864 4.33317H9.42797C9.50664 3.86117 9.65197 3.51984 9.91864 3.25317C10.508 2.6665 11.4493 2.6665 13.3346 2.6665C15.22 2.6665 16.1626 2.6665 16.748 3.25317Z" fill="#D4F4F4"/>
</svg>
