<svg width="40" height="32" viewBox="0 0 40 32" fill="none" xmlns="http://www.w3.org/2000/svg">
<path d="M20 1C21.7239 1 23.3772 1.68482 24.5962 2.90381C25.8152 4.12279 26.5 5.77609 26.5 7.5C26.5 9.22391 25.8152 10.8772 24.5962 12.0962C23.3772 13.3152 21.7239 14 20 14C18.2761 14 16.6228 13.3152 15.4038 12.0962C14.1848 10.8772 13.5 9.22391 13.5 7.5C13.5 5.77609 14.1848 4.12279 15.4038 2.90381C16.6228 1.68482 18.2761 1 20 1ZM6 5.5C6.59095 5.5 7.17611 5.6164 7.72208 5.84254C8.26804 6.06869 8.76412 6.40016 9.18198 6.81802C9.59984 7.23588 9.93131 7.73196 10.1575 8.27792C10.3836 8.82389 10.5 9.40905 10.5 10C10.5 10.5909 10.3836 11.1761 10.1575 11.7221C9.93131 12.268 9.59984 12.7641 9.18198 13.182C8.76412 13.5998 8.26804 13.9313 7.72208 14.1575C7.17611 14.3836 6.59095 14.5 6 14.5C5.40905 14.5 4.82389 14.3836 4.27792 14.1575C3.73196 13.9313 3.23588 13.5998 2.81802 13.182C2.40016 12.7641 2.06869 12.268 1.84254 11.7221C1.6164 11.1761 1.5 10.5909 1.5 10C1.5 9.40905 1.6164 8.82389 1.84254 8.27792C2.06869 7.73196 2.40016 7.23588 2.81802 6.81802C3.23588 6.40016 3.73196 6.06869 4.27792 5.84254C4.82389 5.6164 5.40905 5.5 6 5.5ZM0 26C0 21.5812 3.58125 18 8 18C8.8 18 9.575 18.1187 10.3062 18.3375C8.25 20.6375 7 23.675 7 27V28C7 28.7125 7.15 29.3875 7.41875 30H2C0.89375 30 0 29.1063 0 28V26ZM32.5812 30C32.85 29.3875 33 28.7125 33 28V27C33 23.675 31.75 20.6375 29.6938 18.3375C30.425 18.1187 31.2 18 32 18C36.4188 18 40 21.5812 40 26V28C40 29.1063 39.1063 30 38 30H32.5812ZM29.5 10C29.5 8.80653 29.9741 7.66193 30.818 6.81802C31.6619 5.97411 32.8065 5.5 34 5.5C35.1935 5.5 36.3381 5.97411 37.182 6.81802C38.0259 7.66193 38.5 8.80653 38.5 10C38.5 11.1935 38.0259 12.3381 37.182 13.182C36.3381 14.0259 35.1935 14.5 34 14.5C32.8065 14.5 31.6619 14.0259 30.818 13.182C29.9741 12.3381 29.5 11.1935 29.5 10ZM10 27C10 21.475 14.475 17 20 17C25.525 17 30 21.475 30 27V28C30 29.1063 29.1063 30 28 30H12C10.8938 30 10 29.1063 10 28V27Z" fill="#D4F4F4"/>
</svg>
