<svg width="20" height="20" viewBox="0 0 20 20" fill="none" xmlns="http://www.w3.org/2000/svg">
<path d="M8.125 10C8.125 9.50272 8.32254 9.02581 8.67417 8.67417C9.02581 8.32254 9.50272 8.125 10 8.125C10.4973 8.125 10.9742 8.32254 11.3258 8.67417C11.6775 9.02581 11.875 9.50272 11.875 10C11.875 10.4973 11.6775 10.9742 11.3258 11.3258C10.9742 11.6775 10.4973 11.875 10 11.875C9.50272 11.875 9.02581 11.6775 8.67417 11.3258C8.32254 10.9742 8.125 10.4973 8.125 10Z" fill="#352AA4"/>
<path fill-rule="evenodd" clip-rule="evenodd" d="M1.66699 9.99998C1.66699 11.3666 2.02116 11.8258 2.72949 12.7466C4.14366 14.5833 6.51533 16.6666 10.0003 16.6666C13.4853 16.6666 15.857 14.5833 17.2712 12.7466C17.9795 11.8266 18.3337 11.3658 18.3337 9.99998C18.3337 8.63331 17.9795 8.17415 17.2712 7.25331C15.857 5.41665 13.4853 3.33331 10.0003 3.33331C6.51533 3.33331 4.14366 5.41665 2.72949 7.25331C2.02116 8.17498 1.66699 8.63415 1.66699 9.99998ZM10.0003 6.87498C9.17152 6.87498 8.37667 7.20422 7.79062 7.79027C7.20457 8.37632 6.87533 9.17118 6.87533 9.99998C6.87533 10.8288 7.20457 11.6236 7.79062 12.2097C8.37667 12.7957 9.17152 13.125 10.0003 13.125C10.8291 13.125 11.624 12.7957 12.21 12.2097C12.7961 11.6236 13.1253 10.8288 13.1253 9.99998C13.1253 9.17118 12.7961 8.37632 12.21 7.79027C11.624 7.20422 10.8291 6.87498 10.0003 6.87498Z" fill="#352AA4"/>
</svg>
